# xmcd
#
# Track frame offsets: 
#        182
#        10457
#        19682
#        32727
#        44275
#        55602
#        67062
#        77862
#        88527
#        100127
#        110860
#        120170
#        130812
#        142282
#        151955
#        162427
#        176395
#        185005
#        195302
#        205772
#
# Disc length: 3132 seconds
#
# Revision: 2
# Processed by: cddbd v1.5.2PL0 Copyright (c) Steve Scherf et al.
# Submitted via: ExactAudioCopyFreeDBPlugin 1.0
#
DISCID=0f0c3a14
DTITLE=Ferlin Husky - Vintage Collections
DYEAR=1900
DGENRE=Country
TTITLE0=Tennessee Central (Number 9)
TTITLE1=Don't Believe A Word They Say (as Terry Preston)
TTITLE2=Gone (as Terry Preston)
TTITLE3=I Feel Better All Over
TTITLE4=Undesired
TTITLE5=A Dear John Letter
TTITLE6=Gone
TTITLE7=Prize Possession
TTITLE8=I've Got The World On A String
TTITLE9=A Fallen Star
TTITLE10=My Reason For Living
TTITLE11=Stormy Weather
TTITLE12=Detour
TTITLE13=Draggin' The River
TTITLE14=Wings Of A Dove
TTITLE15=I'm So Lonesome, I Could Cry
TTITLE16=(Open Up The Book) Take a Look
TTITLE17=Once
TTITLE18=Just for You
TTITLE19=Timber I'm Falling
EXTD=
EXTT0=as Terry Preston
EXTT1=previously unreleased
EXTT2=
EXTT3=
EXTT4=
EXTT5=
EXTT6=
EXTT7=
EXTT8=
EXTT9=
EXTT10=
EXTT11=
EXTT12=
EXTT13=
EXTT14=
EXTT15=
EXTT16=
EXTT17=
EXTT18=
EXTT19=
PLAYORDER=
